<?xml version="1.0" standalone="no"?>
<!DOCTYPE svg PUBLIC "-//W3C//DTD SVG 20010904//EN"
 "http://www.w3.org/TR/2001/REC-SVG-20010904/DTD/svg10.dtd">
<svg version="1.0" xmlns="http://www.w3.org/2000/svg"
 width="64.000000pt" height="64.000000pt" viewBox="0 0 64.000000 64.000000"
 preserveAspectRatio="xMidYMid meet">
<metadata>
Created by potrace 1.11, written by Peter Selinger 2001-2013
</metadata>
<g transform="translate(0.000000,64.000000) scale(0.100000,-0.100000)"
fill="#000000" stroke="none">
<path d="M97 622 c-22 -24 -21 -45 1 -65 15 -14 41 -17 134 -17 99 0 117 3
131 18 22 24 21 45 -1 65 -15 14 -41 17 -134 17 -99 0 -117 -3 -131 -18z"/>
<path d="M466 624 c-9 -8 -16 -24 -16 -34 0 -43 54 -65 84 -34 31 30 9 84 -34
84 -10 0 -26 -7 -34 -16z"/>
<path d="M96 454 c-24 -23 -24 -415 0 -438 23 -24 415 -24 438 0 20 20 20 48
0 68 -13 13 -44 16 -185 16 l-169 0 0 169 c0 180 -5 201 -50 201 -10 0 -26 -7
-34 -16z"/>
<path d="M267 352 c-22 -24 -21 -45 1 -65 26 -24 243 -25 266 -1 21 21 20 47
-2 67 -15 14 -41 17 -134 17 -99 0 -117 -3 -131 -18z"/>
</g>
</svg>
